<svg xmlns="http://www.w3.org/2000/svg" viewBox="0 0 292.86 292.35"><g id="Layer_2" data-name="Layer 2"><g id="Layer_1-2" data-name="Layer 1"><path d="M121.14,67a13.27,13.27,0,0,1-13.28,13.26v0c-16.15,1.86-25.23,10.75-27.12,27.09a13.27,13.27,0,0,1-26.54,0,8.84,8.84,0,0,1,0-1c-1.17-25.87,23.07-53.16,52.93-52.6h.06l.62,0A13.27,13.27,0,0,1,121.14,67ZM292.86,277.89a14.46,14.46,0,0,1-24.44,10.47l-.1.1Q228,248.17,186.88,207.07c-30.94,22.56-64.8,29.85-101.7,20-28.18-7.53-50.41-23.9-66.29-48.35C-13.29,129.2-3.51,65.19,41.8,26.72c43.47-36.9,109-35.45,151.91,3.52,43,39.15,51.38,106.23,13.6,156.19L288,267.08A14.42,14.42,0,0,1,292.86,277.89ZM207.31,115.57a91.62,91.62,0,1,0-91.62,91.62A91.62,91.62,0,0,0,207.31,115.57Z"/></g></g></svg>