<svg xmlns="http://www.w3.org/2000/svg" viewBox="0 0 266.93 267.03"><g id="Layer_2" data-name="Layer 2"><g id="Layer_1-2" data-name="Layer 1"><path d="M239.54,52.85C218.28,25,190,7.87,155.41,2c-28-4.77-54.81-.93-79.67,11.4C37.87,32.16,13.55,62.54,3.46,103.67A115.65,115.65,0,0,0,1.3,116.61c-.25,1.94-.51,4-.81,5.9-.08.52-.18,1-.28,1.56L0,125.16v16.58l0,.41c.21,1.52.4,3,.59,4.58.42,3.32.85,6.74,1.46,10.12a134,134,0,0,0,113.26,109c2.21.31,4.44.58,6.6.83l3,.36,16.88,0,.2,0c1.52-.21,3.05-.4,4.58-.6,3.31-.41,6.74-.84,10.12-1.45a131.73,131.73,0,0,0,76.41-42.81,129.11,129.11,0,0,0,32.54-70.56C270.43,115,261.63,81.8,239.54,52.85Zm-106,191.88h0A111.37,111.37,0,0,1,22.31,133.44c.13-61.21,50-111,111.15-111h0A111.34,111.34,0,0,1,244.63,133.73C244.49,194.94,194.64,244.73,133.49,244.73ZM205.63,172a92.64,92.64,0,0,1-33.08,25.42c-12.94,5.92-26.2,8.48-44.16,8.48h-1.14c-23.88-.64-47.73-12.78-65.43-33.29a12.46,12.46,0,0,1-3.26-9,10.85,10.85,0,0,1,3.87-7.42c4.94-4.22,11.64-3.42,16.31,1.93,15.8,18.11,35.69,26.64,59.11,25.35,19.74-1.09,36.54-9.47,49.93-24.92,2.2-2.54,5.78-5.8,11.38-4.83a10.92,10.92,0,0,1,8.5,7A11.4,11.4,0,0,1,205.63,172Zm-.32-63.42c0,1,0,1.79,0,2.62a11.17,11.17,0,0,1-11.1,11h-.05A11.28,11.28,0,0,1,183,111.5c-.07-1.17-.06-2.32,0-3.43,0-.6,0-1.2,0-1.8V106c0-.23,0-.57,0-.69-.32-1.12-3.48-2.84-7.13-2.3-4.13.6-4.16,2.9-4.16,3.65,0,.56,0,1.13,0,1.69,0,1,0,2,0,3a11.13,11.13,0,0,1-10.47,10.93c-.23,0-.46,0-.69,0a11.45,11.45,0,0,1-11-9.74c-2-13.5,4.29-24.89,16.4-29.73,12.76-5.09,27.94-1,35.3,9.6a23,23,0,0,1,4.13,14.86C205.3,107.71,205.31,108.18,205.31,108.61Zm-87.79,3a11.26,11.26,0,0,1-11.12,10.58h-.11a11.23,11.23,0,0,1-11-11.11l0-.62a32.09,32.09,0,0,1,0-3.79c.12-1.31-.2-2.24-2.18-3.09a8.52,8.52,0,0,0-7,0c-2.19.92-2.28,1.91-2.17,3a31.67,31.67,0,0,1,0,4.77,11.27,11.27,0,0,1-11.13,10.84h-.19a11.14,11.14,0,0,1-11-11.16c0-.8,0-1.6,0-2.4v-.91C61.08,96.92,66,88.65,75.85,83.82c10.79-5.28,21.67-4.44,31.48,2.43a23.35,23.35,0,0,1,10.24,20.11c0,.55,0,1.1,0,1.65C117.59,109.18,117.61,110.39,117.52,111.64Z"/></g></g></svg>