<svg xmlns="http://www.w3.org/2000/svg" viewBox="0 0 334.62 361.61"><g id="Layer_2" data-name="Layer 2"><g id="Layer_1-2" data-name="Layer 1"><path d="M279.13,152.24c-9.06-64.8-71.08-107.61-135.21-94.76A113.75,113.75,0,0,0,54.41,148c-8.53,44.92,11.07,91.26,49.83,116,6.66,4.25,9.3,8.66,8.61,16.22-.81,8.84,2.08,16.7,8.17,23.31a3,3,0,0,1,.7,2.49c-4.23,8.5-3.26,17.62-2.8,26.49.65,12.43,7.1,21.54,18.79,26,4.61,1.75,9.75,2.12,14.9,2.91a23.45,23.45,0,0,0,4.51.25l21.84-.83c2.44,0,4.56.05,6.67,0,13.29-.39,25.37-9.48,28-22.43,2.12-10.5,2.59-21.28-1.57-31.67a3.35,3.35,0,0,1,.22-2.89c7-7.43,9.28-16.42,8.41-26.24-.52-5.87,1.9-9.09,6.74-12.35C267.63,238.11,285.85,200.22,279.13,152.24ZM190.73,330c-.09,4.59-2.32,6.76-7,6.81-5.75.06-11.5,0-17.24,0-5.5,0-11,0-16.5,0-5-.05-7.13-2.18-7.2-7,0-3.37-.06-6.74,0-10.11.09-4.46,2.26-6.76,6.65-6.79q17.25-.11,34.49,0c4.47,0,6.72,2.26,6.83,6.63C190.81,323,190.8,326.51,190.73,330Zm23.12-84.31c-9,5.54-15.34,12.75-16.77,23.43-.56,4.17-.24,8.46-.34,12.7-.1,4.88-2.24,7.05-7.14,7.09-7.62,0-15.24,0-22.87,0s-15,0-22.49,0c-5.38,0-7.41-2.11-7.5-7.48-.06-4.11.22-8.28-.34-12.33-1.43-10.33-7.29-17.62-16.17-23-20.84-12.57-34.48-30.72-40.78-54.2C65.32,139.3,102.27,85.57,156.37,80c48.7-5.06,91,26.78,99.39,74.81C261.92,190,245.26,226.41,213.85,245.69ZM94.93,25.27c-1.16-2.77-2.39-5.5-3.45-8.3a12,12,0,0,1,22-9.39q3.84,8.52,7.2,17.25a12,12,0,0,1-22.14,9.06C97.25,31.06,96.13,28.14,94.93,25.27ZM25,239.55c-2.88,1.21-5.73,2.52-8.65,3.59a12,12,0,0,1-15.27-6.5,11.83,11.83,0,0,1,6-15.46q8.68-3.94,17.63-7.36a11.94,11.94,0,0,1,9.31,22C31.09,237.18,28,238.3,25,239.55ZM318.66,117c-2.88,1.2-5.73,2.49-8.65,3.59A12,12,0,0,1,294.49,114a11.87,11.87,0,0,1,6.22-15.36c5.7-2.55,11.47-5,17.29-7.21a11.93,11.93,0,0,1,9.29,22C324.47,114.71,321.54,115.8,318.66,117Zm15.26,108.65c1.37,5.14.82,9.45-2.48,13.12s-7.78,5.2-12.58,3.48c-6.22-2.22-12.35-4.75-18.36-7.5a11.92,11.92,0,0,1,9.11-22,193.12,193.12,0,0,1,18,7.46C330,221.41,331.82,223.82,333.92,225.66ZM7.35,91.8c3,.24,6.2-.1,9,.82C22,94.49,27.48,96.93,33,99.33c6.45,2.83,9.18,9.63,6.53,15.77a11.91,11.91,0,0,1-15.6,6.34c-5.69-2.2-11.35-4.51-16.94-7-4.68-2.07-6.95-6-6.95-11S2.6,94.77,7.35,91.8ZM226.06.72c5.08-1.43,9.38-.81,13,2.49s5.14,7.56,3.49,12.2a200.21,200.21,0,0,1-7.84,19c-2.65,5.54-9.43,7.65-15.08,5.29a11.58,11.58,0,0,1-6.7-14.47A191.69,191.69,0,0,1,220.66,6.6C221.76,4.3,224.22,2.66,226.06.72ZM167.44,103.05c27.33,1.65,47.76,14.41,59.75,39.81,3.28,6.94.85,13.9-5.44,16.8-6.48,3-13.12.14-16.5-7.07-8.18-17.46-24-26.61-43.24-25-7,.6-12.66-3.78-13.55-10.51-.86-6.47,3.48-12.19,10.26-13.29C161.42,103.41,164.18,103.34,167.44,103.05Z"/></g></g></svg>