<svg xmlns="http://www.w3.org/2000/svg" viewBox="0 0 267.57 122.56"><g id="Layer_2" data-name="Layer 2"><g id="Layer_1-2" data-name="Layer 1"><path d="M196.16,122.3c-4.28,0-8.56,0-12.84,0-7.59-.1-13-5.21-13-12.22s5.45-12.13,13-12.16c7.8,0,15.59,0,23.39,0a36.6,36.6,0,0,0,36.51-33.19c1.85-17.94-10.46-34.86-28.53-38.89a53,53,0,0,0-10.47-.89c-7.12-.13-14.26,0-21.39-.05-6.89-.06-12.19-5-12.51-11.51S174.74.78,181.53.71c12.05-.14,24.25-.59,36.13,1C244.13,5.36,265.4,29.21,267.38,56c2.45,33-19.48,60.78-52.15,65.64-6.27.93-12.7.67-19.06,1ZM71.35,0C63.78.58,56.06.39,48.68,1.88,17.89,8.11-2.18,35.32.19,66.87c2,27,23.45,50.7,50.31,54.27,11.61,1.54,23.52,1.1,35.28,1,7-.07,11.82-6,11.47-12.74C96.9,102.85,91.62,98,84.71,97.92c-7.23,0-14.46.08-21.68,0A50.87,50.87,0,0,1,52.85,97c-18.22-4.09-30.57-21.23-28.47-39.2C26.61,38.74,41.85,25,60.89,24.9c7.8,0,15.59,0,23.39,0,7.43,0,12.85-5,13-11.91S92,.65,84.5.52c-4.37-.08-8.74,0-13.12,0ZM162,73.52c7,0,14.07.13,21.1-.08a11.89,11.89,0,0,0,11.27-14.35c-1.18-6.17-6-9.8-13.09-9.81h-95c-.76,0-1.52,0-2.28.06A12,12,0,0,0,73.3,58.49c-1.86,8,3.76,15,12.27,15,16.06.07,32.13,0,48.19,0Q147.88,73.52,162,73.52Z"/></g></g></svg>