<svg xmlns="http://www.w3.org/2000/svg" viewBox="0 0 425.69 425.78"><g id="Layer_2" data-name="Layer 2"><g id="Layer_1-2" data-name="Layer 1"><path d="M425.69,226.21c-1.08,7.8-1.84,15.66-3.27,23.4C411.27,309.94,380,357.2,329,391.13c-36.82,24.51-77.78,36-121.93,34.52-61.43-2-112.94-26.22-153.93-72C24.57,321.74,7,284.24,1.86,241.71c-9-74.72,14.56-138,70.39-188.56,31.76-28.77,69.57-45.31,112-51.3,5-.71,10.13-1.24,15.2-1.85h26.61c7.11.93,14.26,1.62,21.33,2.82,40.44,6.85,76.19,23.74,106.73,51.12,36.71,32.91,59.64,73.69,68.3,122.31,1.37,7.73,2.2,15.56,3.28,23.35Zm-213-204.86A191.48,191.48,0,0,0,21.16,212.74c-.11,105.87,85.89,191.94,191.6,191.72,106-.21,191.8-86.15,191.56-191.86S318.43,21.27,212.67,21.35Zm33.45,194.79c-23.55,20.62-47.16,41.18-70.6,61.93a17.58,17.58,0,0,0-5,7.74c-1.25,4.27,1.28,8.69,5.1,10.86,4.23,2.4,9,1.54,13.67-2.5q41.13-36,82.24-72c6.89-6,6.88-12.58,0-18.62Q232,169,192.38,134.36a53.6,53.6,0,0,0-6.12-5,10.53,10.53,0,0,0-13.47,15.85,36.64,36.64,0,0,0,3.61,3.43L240.83,205c2.89,2.53,5.76,5.08,8.87,7.82C248.31,214.12,247.24,215.16,246.12,216.14Z"/></g></g></svg>